<svg width="165" height="155" viewBox="0 0 165 155" fill="none" xmlns="http://www.w3.org/2000/svg">
<path d="M77.5 0C120.302 0 155 34.6979 155 77.5C155 80.3016 154.849 83.0683 154.56 85.793C151.888 80.0084 147.786 75.021 142.707 71.2822C139.575 38.024 111.578 12 77.5 12C41.3253 12 12 41.3253 12 77.5C12 113.675 41.3253 143 77.5 143C87.8904 143 97.7147 140.579 106.442 136.272C110.784 138.029 115.528 139 120.5 139C122.028 139 123.534 138.905 125.015 138.728C111.892 148.926 95.406 155 77.5 155C34.6979 155 0 120.302 0 77.5C0 34.6979 34.6979 0 77.5 0Z" fill="#0B0F0E"/>
<path d="M86.918 5.45508C94.589 12.0681 103.057 22.1214 109.507 34.7842C116.117 32.3491 122.931 29.1027 129.881 24.874L136.119 35.126C128.744 39.6133 121.451 43.1216 114.31 45.7998C116.391 51.4998 118.012 57.5982 118.982 64.0332C114.85 64.1977 110.89 65.0308 107.206 66.4277C106.347 60.4119 104.831 54.7304 102.862 49.4385C96.729 51.0398 90.7595 52.0481 85 52.5674V74H95.0088C91.3804 77.3649 88.4177 81.4371 86.3438 86H85V89.3887C83.7041 93.1882 83 97.2618 83 101.5C83 105.972 83.784 110.26 85.2197 114.236C85.1465 114.231 85.0733 114.226 85 114.221V137.279C87.8346 133.662 90.361 130.086 92.6035 126.558C95.2997 129.557 98.4724 132.119 102.003 134.125C97.9517 140.364 93.136 146.664 87.4727 152.999L83 149L79.6445 146H75.3555L72 149L67.5273 152.999C57.5574 141.847 50.2106 130.803 45.0459 120.012C38.2625 122.468 31.263 125.779 24.1191 130.126L17.8809 119.874C25.5192 115.226 33.0695 111.628 40.4541 108.916C37.6965 101.033 36.0817 93.3711 35.3945 86H12V74H35.0713C35.4538 64.2923 37.3787 55.214 40.2793 46.9482C30.4996 43.4514 22.6185 38.9219 17.2822 34.709L24.7178 25.291C29.0619 28.7206 36.0043 32.7503 44.9473 35.8721C51.4614 22.6937 60.1952 12.2541 68.082 5.45508L72 10L73 11.1592V9H83.8623L86.918 5.45508ZM73 114.164C67.7708 114.473 62.325 115.233 56.707 116.544C60.6609 124.433 65.9948 132.605 73 140.982V114.164ZM47.457 86C48.1259 92.2232 49.5569 98.6907 51.9229 105.357C59.2098 103.511 66.2619 102.5 73 102.146V86H47.457ZM149 74V77.1299C148.058 76.0293 147.053 74.9847 145.991 74H149ZM51.8145 50.3203C49.2152 57.5485 47.4659 65.4872 47.0811 74H73V52.9707C65.4213 52.7966 58.3175 51.8172 51.8145 50.3203ZM73 17.2168C67.4498 22.5995 61.5415 30.0483 56.7617 39.1162C61.8089 40.1464 67.2443 40.819 73 40.9678V17.2168ZM85 40.5117C89.1551 40.0894 93.435 39.3801 97.8184 38.332C93.9798 31.221 89.4608 25.1355 85 20.2979V40.5117Z" fill="#0B0F0E"/>
<line y1="-6" x2="34.9611" y2="-6" transform="matrix(0.7179 0.696146 -0.7179 0.696146 130.901 123.183)" stroke="#03AEEB" stroke-width="12"/>
<path d="M122.07 76C136.644 76 148.141 87.4098 148.141 101.099C148.141 114.787 136.644 126.197 122.07 126.197C107.497 126.197 96 114.787 96 101.099C96 87.4098 107.497 76.0001 122.07 76Z" stroke="#03AEEB" stroke-width="12"/>
</svg>
