<svg width="753" height="155" viewBox="0 0 753 155" fill="none" xmlns="http://www.w3.org/2000/svg">
<path d="M77.5 0C120.302 0 155 34.6979 155 77.5C155 80.3016 154.849 83.0683 154.56 85.793C151.888 80.0084 147.786 75.021 142.707 71.2822C139.575 38.024 111.578 12 77.5 12C41.3253 12 12 41.3253 12 77.5C12 113.675 41.3253 143 77.5 143C87.8904 143 97.7147 140.579 106.442 136.272C110.784 138.029 115.528 139 120.5 139C122.028 139 123.534 138.905 125.015 138.728C111.892 148.926 95.406 155 77.5 155C34.6979 155 0 120.302 0 77.5C0 34.6979 34.6979 0 77.5 0Z" fill="#03AEEB"/>
<path d="M86.918 5.45508C94.589 12.0681 103.057 22.1214 109.507 34.7842C116.117 32.3491 122.931 29.1027 129.881 24.874L136.119 35.126C128.744 39.6133 121.451 43.1216 114.31 45.7998C116.391 51.4998 118.012 57.5982 118.982 64.0332C114.85 64.1977 110.89 65.0308 107.206 66.4277C106.347 60.4119 104.831 54.7304 102.862 49.4385C96.729 51.0398 90.7595 52.0481 85 52.5674V74H95.0088C91.3804 77.3649 88.4177 81.4371 86.3438 86H85V89.3887C83.7041 93.1882 83 97.2618 83 101.5C83 105.972 83.784 110.26 85.2197 114.236C85.1465 114.231 85.0733 114.226 85 114.221V137.279C87.8346 133.662 90.361 130.086 92.6035 126.558C95.2997 129.557 98.4724 132.119 102.003 134.125C97.9517 140.364 93.136 146.664 87.4727 152.999L83 149L79.6445 146H75.3555L72 149L67.5273 152.999C57.5574 141.847 50.2106 130.803 45.0459 120.012C38.2625 122.468 31.263 125.779 24.1191 130.126L17.8809 119.874C25.5192 115.226 33.0695 111.628 40.4541 108.916C37.6965 101.033 36.0817 93.3711 35.3945 86H12V74H35.0713C35.4538 64.2923 37.3787 55.214 40.2793 46.9482C30.4996 43.4514 22.6185 38.9219 17.2822 34.709L24.7178 25.291C29.0619 28.7206 36.0043 32.7503 44.9473 35.8721C51.4614 22.6937 60.1952 12.2541 68.082 5.45508L72 10L73 11.1592V9H83.8623L86.918 5.45508ZM73 114.164C67.7708 114.473 62.325 115.233 56.707 116.544C60.6609 124.433 65.9948 132.605 73 140.982V114.164ZM47.457 86C48.1259 92.2232 49.5569 98.6907 51.9229 105.357C59.2098 103.511 66.2619 102.5 73 102.146V86H47.457ZM149 74V77.1299C148.058 76.0293 147.053 74.9847 145.991 74H149ZM51.8145 50.3203C49.2152 57.5485 47.4659 65.4872 47.0811 74H73V52.9707C65.4213 52.7966 58.3175 51.8172 51.8145 50.3203ZM73 17.2168C67.4498 22.5995 61.5415 30.0483 56.7617 39.1162C61.8089 40.1464 67.2443 40.819 73 40.9678V17.2168ZM85 40.5117C89.1551 40.0894 93.435 39.3801 97.8184 38.332C93.9798 31.221 89.4608 25.1355 85 20.2979V40.5117Z" fill="#03AEEB"/>
<line y1="-6" x2="34.9611" y2="-6" transform="matrix(0.7179 0.696146 -0.7179 0.696146 130.901 123.183)" stroke="#03AEEB" stroke-width="12"/>
<path d="M122.07 76C136.644 76 148.141 87.4098 148.141 101.099C148.141 114.787 136.644 126.197 122.07 126.197C107.497 126.197 96 114.787 96 101.099C96 87.4098 107.497 76.0001 122.07 76Z" stroke="#03AEEB" stroke-width="12"/>
<path d="M189.7 112L170.7 41H184.4L197.4 94L210.5 41H222.6L235.7 94L248.6 41H262.4L243.4 112H229L216.6 63.4L204.2 112H189.7ZM291.536 113.2C286.269 113.2 281.636 112.067 277.636 109.8C273.703 107.467 270.636 104.2 268.436 100C266.303 95.8 265.236 90.9 265.236 85.3C265.236 79.6333 266.303 74.7333 268.436 70.6C270.636 66.4 273.703 63.1667 277.636 60.9C281.636 58.5667 286.269 57.4 291.536 57.4C296.803 57.4 301.403 58.5667 305.336 60.9C309.269 63.1667 312.303 66.4 314.436 70.6C316.636 74.7333 317.736 79.6333 317.736 85.3C317.736 90.9 316.636 95.8 314.436 100C312.303 104.2 309.269 107.467 305.336 109.8C301.403 112.067 296.803 113.2 291.536 113.2ZM291.536 102.8C295.669 102.8 298.836 101.267 301.036 98.2C303.303 95.1333 304.436 90.8333 304.436 85.3C304.436 79.8333 303.303 75.5667 301.036 72.5C298.836 69.3667 295.669 67.8 291.536 67.8C287.403 67.8 284.203 69.3667 281.936 72.5C279.669 75.5667 278.536 79.8333 278.536 85.3C278.536 90.8333 279.669 95.1333 281.936 98.2C284.203 101.267 287.403 102.8 291.536 102.8ZM327.613 112V58.6H339.613L340.113 73.4L339.013 73.2C339.813 68.0667 341.313 64.3667 343.513 62.1C345.78 59.7667 348.847 58.6 352.713 58.6H357.613V69.6H352.613C349.88 69.6 347.613 70 345.813 70.8C344.013 71.6 342.647 72.8667 341.713 74.6C340.847 76.2667 340.413 78.4667 340.413 81.2V112H327.613ZM378.695 112C374.828 112 371.728 111 369.395 109C367.061 107 365.895 103.8 365.895 99.4V41H378.695V98.1C378.695 99.4333 379.028 100.433 379.695 101.1C380.428 101.767 381.428 102.1 382.695 102.1H386.595V112H378.695ZM413.801 113.2C409.267 113.2 405.334 112.067 402.001 109.8C398.734 107.533 396.201 104.3 394.401 100.1C392.601 95.9 391.701 90.9667 391.701 85.3C391.701 79.6333 392.601 74.7 394.401 70.5C396.201 66.3 398.767 63.0667 402.101 60.8C405.434 58.5333 409.334 57.4 413.801 57.4C417.534 57.4 420.801 58.1667 423.601 59.7C426.467 61.2333 428.634 63.4 430.101 66.2V41H442.901V112H430.701L430.401 104.1C428.934 106.967 426.734 109.2 423.801 110.8C420.867 112.4 417.534 113.2 413.801 113.2ZM417.701 102.8C420.367 102.8 422.601 102.133 424.401 100.8C426.267 99.4667 427.667 97.5 428.601 94.9C429.601 92.2333 430.101 89.0333 430.101 85.3C430.101 81.5 429.601 78.3 428.601 75.7C427.667 73.1 426.267 71.1333 424.401 69.8C422.601 68.4667 420.367 67.8 417.701 67.8C413.834 67.8 410.734 69.3667 408.401 72.5C406.134 75.5667 405.001 79.8333 405.001 85.3C405.001 90.6333 406.134 94.9 408.401 98.1C410.734 101.233 413.834 102.8 417.701 102.8Z" fill="#D9E0E9"/>
<path d="M483.148 113.6C477.281 113.6 472.214 112.567 467.948 110.5C463.681 108.433 460.314 105.567 457.848 101.9C455.448 98.1667 454.048 93.8333 453.648 88.9L466.848 88.1C467.248 91.1667 468.114 93.7667 469.448 95.9C470.848 98.0333 472.681 99.6667 474.948 100.8C477.281 101.867 480.081 102.4 483.348 102.4C486.148 102.4 488.514 102.067 490.448 101.4C492.448 100.667 493.948 99.6333 494.948 98.3C496.014 96.9 496.548 95.2 496.548 93.2C496.548 91.4 496.114 89.8 495.248 88.4C494.381 86.9333 492.714 85.6333 490.248 84.5C487.781 83.3 484.114 82.1333 479.248 81C473.381 79.6667 468.681 78.1667 465.148 76.5C461.614 74.7667 459.048 72.6333 457.448 70.1C455.848 67.5 455.048 64.2667 455.048 60.4C455.048 56.2667 456.081 52.6333 458.148 49.5C460.214 46.3 463.148 43.8333 466.948 42.1C470.748 40.3 475.314 39.4 480.648 39.4C486.314 39.4 491.114 40.4333 495.048 42.5C498.981 44.5 502.081 47.2667 504.348 50.8C506.614 54.3333 508.014 58.4 508.548 63L495.448 63.6C495.114 61 494.314 58.7333 493.048 56.8C491.848 54.8667 490.181 53.3667 488.048 52.3C485.981 51.1667 483.448 50.6 480.448 50.6C476.714 50.6 473.748 51.4667 471.548 53.2C469.414 54.8667 468.348 57.1 468.348 59.9C468.348 61.8333 468.781 63.4333 469.648 64.7C470.581 65.9667 472.214 67.0667 474.548 68C476.881 68.8667 480.148 69.8 484.348 70.8C490.681 72.1333 495.714 73.8333 499.448 75.9C503.181 77.9667 505.848 80.3667 507.448 83.1C509.048 85.8333 509.848 88.9667 509.848 92.5C509.848 96.8333 508.748 100.6 506.548 103.8C504.348 106.933 501.248 109.367 497.248 111.1C493.248 112.767 488.548 113.6 483.148 113.6ZM546.223 113.2C540.89 113.2 536.257 112.067 532.323 109.8C528.39 107.467 525.323 104.2 523.123 100C520.99 95.8 519.923 90.9 519.923 85.3C519.923 79.7 520.99 74.8333 523.123 70.7C525.323 66.5 528.39 63.2333 532.323 60.9C536.257 58.5667 540.89 57.4 546.223 57.4C550.757 57.4 554.79 58.2 558.323 59.8C561.857 61.4 564.723 63.7 566.923 66.7C569.19 69.6333 570.59 73.2333 571.123 77.5L557.923 78.2C557.39 74.8 556.057 72.2333 553.923 70.5C551.857 68.7 549.29 67.8 546.223 67.8C542.09 67.8 538.89 69.3667 536.623 72.5C534.357 75.5667 533.223 79.8333 533.223 85.3C533.223 90.8333 534.357 95.1333 536.623 98.2C538.89 101.267 542.09 102.8 546.223 102.8C549.357 102.8 551.957 101.9 554.023 100.1C556.157 98.3 557.457 95.5 557.923 91.7L571.123 92.3C570.59 96.5667 569.223 100.267 567.023 103.4C564.823 106.533 561.957 108.967 558.423 110.7C554.89 112.367 550.823 113.2 546.223 113.2ZM603.255 113.2C597.988 113.2 593.355 112.067 589.355 109.8C585.421 107.467 582.355 104.2 580.155 100C578.021 95.8 576.955 90.9 576.955 85.3C576.955 79.6333 578.021 74.7333 580.155 70.6C582.355 66.4 585.421 63.1667 589.355 60.9C593.355 58.5667 597.988 57.4 603.255 57.4C608.521 57.4 613.121 58.5667 617.055 60.9C620.988 63.1667 624.021 66.4 626.155 70.6C628.355 74.7333 629.455 79.6333 629.455 85.3C629.455 90.9 628.355 95.8 626.155 100C624.021 104.2 620.988 107.467 617.055 109.8C613.121 112.067 608.521 113.2 603.255 113.2ZM603.255 102.8C607.388 102.8 610.555 101.267 612.755 98.2C615.021 95.1333 616.155 90.8333 616.155 85.3C616.155 79.8333 615.021 75.5667 612.755 72.5C610.555 69.3667 607.388 67.8 603.255 67.8C599.121 67.8 595.921 69.3667 593.655 72.5C591.388 75.5667 590.255 79.8333 590.255 85.3C590.255 90.8333 591.388 95.1333 593.655 98.2C595.921 101.267 599.121 102.8 603.255 102.8ZM639.332 127V58.6H651.632L651.932 70L650.632 69.4C651.965 65.4667 654.132 62.5 657.132 60.5C660.199 58.4333 663.765 57.4 667.832 57.4C672.899 57.4 677.099 58.6667 680.432 61.2C683.832 63.7333 686.365 67.1 688.032 71.3C689.699 75.5 690.532 80.1667 690.532 85.3C690.532 90.4333 689.665 95.1 687.932 99.3C686.265 103.5 683.732 106.867 680.332 109.4C676.999 111.933 672.799 113.2 667.732 113.2C665.065 113.2 662.565 112.733 660.232 111.8C657.965 110.867 655.999 109.533 654.332 107.8C652.732 106.067 651.599 104.033 650.932 101.7L652.132 100.7V127H639.332ZM664.732 102.8C668.599 102.8 671.632 101.267 673.832 98.2C676.099 95.0667 677.232 90.7667 677.232 85.3C677.232 79.8333 676.099 75.5667 673.832 72.5C671.632 69.3667 668.599 67.8 664.732 67.8C662.132 67.8 659.899 68.4667 658.032 69.8C656.165 71.0667 654.699 73 653.632 75.6C652.632 78.2 652.132 81.4333 652.132 85.3C652.132 89.1667 652.632 92.4 653.632 95C654.632 97.6 656.065 99.5667 657.932 100.9C659.865 102.167 662.132 102.8 664.732 102.8ZM723.565 113.2C718.232 113.2 713.598 112.067 709.665 109.8C705.732 107.467 702.698 104.2 700.565 100C698.432 95.8 697.365 90.9 697.365 85.3C697.365 79.7 698.432 74.8333 700.565 70.7C702.698 66.5 705.698 63.2333 709.565 60.9C713.498 58.5667 718.065 57.4 723.265 57.4C728.332 57.4 732.765 58.5333 736.565 60.8C740.432 63.0667 743.398 66.3333 745.465 70.6C747.532 74.8667 748.565 80 748.565 86V88.9H710.665C710.932 93.5667 712.198 97.1 714.465 99.5C716.798 101.833 719.865 103 723.665 103C726.532 103 728.898 102.367 730.765 101.1C732.698 99.7667 734.032 97.9333 734.765 95.6L747.865 96.4C746.398 101.6 743.498 105.7 739.165 108.7C734.898 111.7 729.698 113.2 723.565 113.2ZM710.665 80.3H735.365C735.098 75.9667 733.865 72.7667 731.665 70.7C729.465 68.5667 726.665 67.5 723.265 67.5C719.865 67.5 717.032 68.6 714.765 70.8C712.565 73 711.198 76.1667 710.665 80.3Z" fill="#03AEEB"/>
</svg>
