<svg width="534" height="356" viewBox="0 0 534 356" fill="none" xmlns="http://www.w3.org/2000/svg">
<rect width="534" height="356" fill="#F8FAFC"/>
<path d="M268.003 69C310.531 69 345.007 103.475 345.007 146.003L345 146.998C344.97 149.4 344.828 151.776 344.582 154.12C341.899 148.355 337.787 143.39 332.701 139.68C329.522 106.747 301.77 81 268.003 81C232.103 81.0001 203 110.103 203 146.003C203 181.903 232.103 211.007 268.003 211.007C278.26 211.007 287.962 208.63 296.589 204.398C300.95 206.185 305.723 207.173 310.728 207.173C312.213 207.173 313.677 207.083 315.117 206.914C302.095 217.002 285.75 223.007 268.003 223.007L267.008 223C224.939 222.467 191 188.198 191 146.003C191 103.475 225.475 69.0001 268.003 69Z" fill="#64748B"/>
<path d="M277.386 74.391C285.005 80.9594 293.415 90.9414 299.823 103.513C306.379 101.096 313.136 97.8746 320.029 93.6811L323.148 98.807L326.266 103.933C318.949 108.385 311.712 111.869 304.626 114.529C306.682 120.166 308.285 126.196 309.249 132.557C305.115 132.718 301.154 133.55 297.472 134.95C296.619 129.009 295.122 123.397 293.179 118.168C287.107 119.752 281.197 120.749 275.493 121.265V142.487H285.348C281.723 145.85 278.765 149.923 276.701 154.487H275.493V157.512C274.141 161.374 273.404 165.525 273.404 169.849C273.404 174.304 274.185 178.577 275.617 182.538C275.576 182.536 275.535 182.533 275.493 182.53V205.288C278.269 201.741 280.745 198.233 282.947 194.772C285.641 197.773 288.814 200.335 292.347 202.338C288.328 208.522 283.553 214.766 277.941 221.043L273.468 217.044L270.135 214.064H265.872L262.538 217.044L258.066 221.043C248.167 209.972 240.87 199.006 235.738 188.29C229.011 190.729 222.069 194.013 214.985 198.324L211.865 193.199L208.746 188.073C216.326 183.461 223.817 179.888 231.146 177.194C228.417 169.383 226.817 161.791 226.133 154.487H202.923V142.487H225.81C226.193 132.865 228.099 123.866 230.972 115.67C221.268 112.196 213.447 107.699 208.148 103.516L215.583 94.0981C219.891 97.4987 226.773 101.495 235.64 104.594C242.113 91.5101 250.787 81.1443 258.62 74.391L262.538 78.935L263.493 80.0424V77.9418H274.324L277.386 74.391ZM263.493 182.473C258.327 182.781 252.948 183.53 247.4 184.822C251.312 192.619 256.581 200.695 263.493 208.973V182.473ZM238.196 154.487C238.861 160.644 240.278 167.041 242.615 173.635C249.833 171.809 256.818 170.807 263.493 170.454V154.487H238.196ZM339.045 142.487V145.537C338.124 144.465 337.142 143.448 336.107 142.487H339.045ZM242.507 119.042C239.936 126.201 238.206 134.06 237.821 142.487H263.493V121.669C255.988 121.494 248.951 120.523 242.507 119.042ZM263.493 86.1986C258.01 91.5301 252.18 98.8888 247.456 107.838C252.443 108.853 257.811 109.515 263.493 109.664V86.1986ZM275.493 109.209C279.591 108.791 283.811 108.091 288.133 107.06C284.345 100.052 279.892 94.0484 275.493 89.266V109.209Z" fill="#64748B"/>
<line y1="-6" x2="34.737" y2="-6" transform="matrix(0.7179 0.696146 -0.7179 0.696146 321.062 191.393)" stroke="#94A3B8" stroke-width="12"/>
<path d="M312.288 144.551C326.748 144.551 338.153 155.872 338.153 169.451C338.152 183.029 326.748 194.35 312.288 194.35C297.828 194.35 286.423 183.029 286.423 169.451C286.423 155.872 297.828 144.551 312.288 144.551Z" stroke="#94A3B8" stroke-width="12"/>
<path d="M339.045 246.356C339.045 252.118 307.238 256.788 268.003 256.788C228.768 256.788 196.962 252.118 196.962 246.356C196.962 240.594 228.768 235.923 268.003 235.923C307.238 235.923 339.045 240.594 339.045 246.356Z" fill="#94A3B8" fill-opacity="0.8"/>
<path d="M180.072 290V270.12H184.776L192.672 283.84V270.12H196.928V290H192.168L184.328 276.756V290H180.072ZM207.379 290.336C205.848 290.336 204.513 290.019 203.375 289.384C202.236 288.731 201.349 287.816 200.715 286.64C200.08 285.464 199.763 284.083 199.763 282.496C199.763 280.909 200.08 279.537 200.715 278.38C201.349 277.204 202.236 276.289 203.375 275.636C204.513 274.983 205.848 274.656 207.379 274.656C208.909 274.656 210.244 274.983 211.383 275.636C212.521 276.289 213.408 277.204 214.043 278.38C214.677 279.537 214.995 280.909 214.995 282.496C214.995 284.083 214.677 285.464 214.043 286.64C213.408 287.816 212.521 288.731 211.383 289.384C210.244 290.019 208.909 290.336 207.379 290.336ZM207.379 287.116C208.424 287.116 209.236 286.715 209.815 285.912C210.393 285.091 210.683 283.952 210.683 282.496C210.683 281.04 210.393 279.911 209.815 279.108C209.236 278.287 208.424 277.876 207.379 277.876C206.333 277.876 205.521 278.287 204.943 279.108C204.364 279.911 204.075 281.04 204.075 282.496C204.075 283.952 204.364 285.091 204.943 285.912C205.521 286.715 206.333 287.116 207.379 287.116ZM225.878 290V274.796C225.878 273.303 226.28 272.155 227.082 271.352C227.885 270.531 229.136 270.12 230.834 270.12H234.026V273.256H231.73C231.152 273.256 230.732 273.405 230.47 273.704C230.209 273.984 230.078 274.413 230.078 274.992V290H225.878ZM223.694 278.688V275.552H233.802V278.688H223.694ZM240.242 290C239.01 290 238.049 289.692 237.358 289.076C236.668 288.46 236.322 287.461 236.322 286.08V270.12H240.522V285.632C240.522 286.08 240.625 286.397 240.83 286.584C241.036 286.771 241.334 286.864 241.726 286.864H242.734V290H240.242ZM249.488 290.336C247.938 290.336 246.669 289.981 245.68 289.272C244.709 288.544 244.224 287.536 244.224 286.248C244.224 284.923 244.634 283.905 245.456 283.196C246.296 282.468 247.528 281.936 249.152 281.6L253.996 280.648C253.996 279.677 253.772 278.949 253.324 278.464C252.894 277.96 252.269 277.708 251.448 277.708C250.645 277.708 250.02 277.895 249.572 278.268C249.124 278.623 248.834 279.155 248.704 279.864L244.476 279.668C244.756 278.025 245.493 276.784 246.688 275.944C247.901 275.085 249.488 274.656 251.448 274.656C253.688 274.656 255.368 275.188 256.488 276.252C257.626 277.316 258.196 278.875 258.196 280.928V286.052C258.196 286.481 258.261 286.771 258.392 286.92C258.541 287.051 258.756 287.116 259.036 287.116H259.456V290C259.325 290.037 259.11 290.075 258.812 290.112C258.532 290.149 258.252 290.168 257.971 290.168C257.374 290.168 256.814 290.065 256.292 289.86C255.788 289.655 255.377 289.309 255.06 288.824C254.742 288.32 254.584 287.611 254.584 286.696L254.948 286.976C254.761 287.648 254.425 288.236 253.94 288.74C253.473 289.244 252.857 289.636 252.092 289.916C251.345 290.196 250.477 290.336 249.488 290.336ZM250.496 287.452C251.186 287.452 251.793 287.321 252.316 287.06C252.838 286.78 253.249 286.379 253.548 285.856C253.846 285.333 253.996 284.717 253.996 284.008V283.28L250.579 284.008C249.908 284.139 249.394 284.363 249.04 284.68C248.704 284.979 248.536 285.371 248.536 285.856C248.536 286.36 248.704 286.752 249.04 287.032C249.376 287.312 249.861 287.452 250.496 287.452ZM268.107 294.536C266.67 294.536 265.466 294.359 264.495 294.004C263.543 293.649 262.778 293.155 262.199 292.52C261.639 291.885 261.247 291.157 261.023 290.336L265.335 290.028C265.484 290.513 265.764 290.896 266.175 291.176C266.604 291.456 267.248 291.596 268.107 291.596C269.115 291.596 269.88 291.353 270.403 290.868C270.944 290.401 271.215 289.645 271.215 288.6V287.004C270.86 287.695 270.291 288.255 269.507 288.684C268.723 289.095 267.846 289.3 266.875 289.3C265.643 289.3 264.551 289.001 263.599 288.404C262.647 287.788 261.9 286.939 261.359 285.856C260.836 284.755 260.575 283.467 260.575 281.992C260.575 280.555 260.836 279.285 261.359 278.184C261.9 277.083 262.638 276.224 263.571 275.608C264.523 274.973 265.606 274.656 266.819 274.656C267.92 274.656 268.844 274.899 269.591 275.384C270.356 275.869 270.935 276.513 271.327 277.316V274.992H275.443V288.516C275.443 289.86 275.135 290.971 274.519 291.848C273.903 292.744 273.044 293.416 271.943 293.864C270.842 294.312 269.563 294.536 268.107 294.536ZM268.079 286.192C269.05 286.192 269.815 285.819 270.375 285.072C270.954 284.325 271.243 283.289 271.243 281.964C271.243 281.087 271.112 280.331 270.851 279.696C270.608 279.061 270.244 278.576 269.759 278.24C269.292 277.904 268.732 277.736 268.079 277.736C267.071 277.736 266.287 278.119 265.727 278.884C265.167 279.649 264.887 280.676 264.887 281.964C264.887 283.271 265.176 284.307 265.755 285.072C266.334 285.819 267.108 286.192 268.079 286.192ZM287.128 290V274.796C287.128 273.303 287.53 272.155 288.332 271.352C289.135 270.531 290.386 270.12 292.084 270.12H295.276V273.256H292.98C292.402 273.256 291.982 273.405 291.72 273.704C291.459 273.984 291.328 274.413 291.328 274.992V290H287.128ZM284.944 278.688V275.552H295.052V278.688H284.944ZM303.765 290.336C302.235 290.336 300.9 290.019 299.761 289.384C298.623 288.731 297.736 287.816 297.101 286.64C296.467 285.464 296.149 284.083 296.149 282.496C296.149 280.909 296.467 279.537 297.101 278.38C297.736 277.204 298.623 276.289 299.761 275.636C300.9 274.983 302.235 274.656 303.765 274.656C305.296 274.656 306.631 274.983 307.769 275.636C308.908 276.289 309.795 277.204 310.429 278.38C311.064 279.537 311.381 280.909 311.381 282.496C311.381 284.083 311.064 285.464 310.429 286.64C309.795 287.816 308.908 288.731 307.769 289.384C306.631 290.019 305.296 290.336 303.765 290.336ZM303.765 287.116C304.811 287.116 305.623 286.715 306.201 285.912C306.78 285.091 307.069 283.952 307.069 282.496C307.069 281.04 306.78 279.911 306.201 279.108C305.623 278.287 304.811 277.876 303.765 277.876C302.72 277.876 301.908 278.287 301.329 279.108C300.751 279.911 300.461 281.04 300.461 282.496C300.461 283.952 300.751 285.091 301.329 285.912C301.908 286.715 302.72 287.116 303.765 287.116ZM318.924 290.336C317.375 290.336 316.162 289.841 315.284 288.852C314.426 287.844 313.996 286.444 313.996 284.652V274.992H318.196V283.672C318.196 284.829 318.374 285.679 318.728 286.22C319.083 286.743 319.643 287.004 320.408 287.004C321.267 287.004 321.93 286.715 322.396 286.136C322.882 285.539 323.124 284.652 323.124 283.476V274.992H327.324V290H323.488L323.376 285.688L323.908 285.8C323.684 287.293 323.152 288.423 322.312 289.188C321.472 289.953 320.343 290.336 318.924 290.336ZM331.004 290V274.992H334.784L334.952 279.388L334.42 279.248C334.57 278.128 334.868 277.232 335.316 276.56C335.783 275.888 336.362 275.403 337.052 275.104C337.743 274.805 338.499 274.656 339.32 274.656C340.403 274.656 341.318 274.889 342.064 275.356C342.83 275.823 343.408 276.485 343.8 277.344C344.211 278.184 344.416 279.183 344.416 280.34V290H340.216V281.74C340.216 280.937 340.151 280.256 340.02 279.696C339.89 279.136 339.656 278.716 339.32 278.436C338.984 278.137 338.518 277.988 337.92 277.988C337.043 277.988 336.371 278.315 335.904 278.968C335.438 279.603 335.204 280.527 335.204 281.74V290H331.004ZM353.114 290.336C351.845 290.336 350.743 290.019 349.81 289.384C348.895 288.731 348.186 287.825 347.682 286.668C347.197 285.492 346.954 284.101 346.954 282.496C346.954 280.891 347.206 279.509 347.71 278.352C348.214 277.176 348.923 276.271 349.838 275.636C350.771 274.983 351.863 274.656 353.114 274.656C354.178 274.656 355.093 274.88 355.858 275.328C356.642 275.757 357.23 276.355 357.622 277.12V270.12H361.822V290H357.818L357.734 287.788C357.323 288.591 356.707 289.216 355.886 289.664C355.083 290.112 354.159 290.336 353.114 290.336ZM354.486 287.116C355.158 287.116 355.727 286.939 356.194 286.584C356.661 286.229 357.015 285.716 357.258 285.044C357.501 284.353 357.622 283.504 357.622 282.496C357.622 281.469 357.501 280.62 357.258 279.948C357.015 279.257 356.661 278.744 356.194 278.408C355.727 278.053 355.158 277.876 354.486 277.876C353.497 277.876 352.713 278.296 352.134 279.136C351.555 279.957 351.266 281.077 351.266 282.496C351.266 283.896 351.555 285.016 352.134 285.856C352.731 286.696 353.515 287.116 354.486 287.116Z" fill="#0F172A"/>
</svg>
