<svg width="534" height="356" viewBox="0 0 534 356" fill="none" xmlns="http://www.w3.org/2000/svg">
<rect width="534" height="356" fill="#F8FAFC"/>
<path d="M270.003 84C312.531 84 347.007 118.475 347.007 161.003L347 161.998C346.97 164.4 346.828 166.776 346.582 169.12C343.899 163.355 339.787 158.39 334.701 154.68C331.522 121.747 303.77 96 270.003 96C234.103 96.0001 205 125.103 205 161.003C205 196.903 234.103 226.007 270.003 226.007C280.26 226.007 289.962 223.63 298.589 219.398C302.95 221.185 307.723 222.173 312.728 222.173C314.213 222.173 315.677 222.083 317.117 221.914C304.095 232.002 287.75 238.007 270.003 238.007L269.008 238C226.939 237.467 193 203.198 193 161.003C193 118.475 227.475 84.0001 270.003 84Z" fill="#64748B"/>
<path d="M279.386 89.391C287.005 95.9594 295.415 105.941 301.823 118.513C308.379 116.096 315.136 112.875 322.029 108.681L325.148 113.807L328.266 118.933C320.949 123.385 313.712 126.869 306.626 129.529C308.682 135.166 310.285 141.196 311.249 147.557C307.115 147.718 303.154 148.55 299.472 149.95C298.619 144.009 297.122 138.397 295.179 133.168C289.107 134.752 283.197 135.749 277.493 136.265V157.487H287.348C283.723 160.85 280.765 164.923 278.701 169.487H277.493V172.512C276.141 176.374 275.404 180.525 275.404 184.849C275.404 189.304 276.185 193.577 277.617 197.538C277.576 197.536 277.535 197.533 277.493 197.53V220.288C280.269 216.741 282.745 213.233 284.947 209.772C287.641 212.773 290.814 215.335 294.347 217.338C290.328 223.522 285.553 229.766 279.941 236.043L275.468 232.044L272.135 229.064H267.872L264.538 232.044L260.066 236.043C250.167 224.972 242.87 214.006 237.738 203.29C231.011 205.729 224.069 209.013 216.985 213.324L213.865 208.199L210.746 203.073C218.326 198.461 225.817 194.888 233.146 192.194C230.417 184.383 228.817 176.791 228.133 169.487H204.923V157.487H227.81C228.193 147.865 230.099 138.866 232.972 130.67C223.268 127.196 215.447 122.699 210.148 118.516L217.583 109.098C221.891 112.499 228.773 116.495 237.64 119.594C244.113 106.51 252.787 96.1443 260.62 89.391L264.538 93.935L265.493 95.0424V92.9418H276.324L279.386 89.391ZM265.493 197.473C260.327 197.781 254.948 198.53 249.4 199.822C253.312 207.619 258.581 215.695 265.493 223.973V197.473ZM240.196 169.487C240.861 175.644 242.278 182.041 244.615 188.635C251.833 186.809 258.818 185.807 265.493 185.454V169.487H240.196ZM341.045 157.487V160.537C340.124 159.465 339.142 158.448 338.107 157.487H341.045ZM244.507 134.042C241.936 141.201 240.206 149.06 239.821 157.487H265.493V136.669C257.988 136.494 250.951 135.523 244.507 134.042ZM265.493 101.199C260.01 106.53 254.18 113.889 249.456 122.838C254.443 123.853 259.811 124.515 265.493 124.664V101.199ZM277.493 124.209C281.591 123.791 285.811 123.091 290.133 122.06C286.345 115.052 281.892 109.048 277.493 104.266V124.209Z" fill="#64748B"/>
<line y1="-6" x2="34.737" y2="-6" transform="matrix(0.7179 0.696146 -0.7179 0.696146 323.062 206.393)" stroke="#94A3B8" stroke-width="12"/>
<path d="M314.288 159.551C328.748 159.551 340.153 170.872 340.153 184.451C340.152 198.029 328.748 209.35 314.288 209.35C299.828 209.35 288.423 198.029 288.423 184.451C288.423 170.872 299.828 159.551 314.288 159.551Z" stroke="#94A3B8" stroke-width="12"/>
<path d="M341.045 261.356C341.045 267.118 309.238 271.788 270.003 271.788C230.768 271.788 198.962 267.118 198.962 261.356C198.962 255.594 230.768 250.923 270.003 250.923C309.238 250.923 341.045 255.594 341.045 261.356Z" fill="#94A3B8" fill-opacity="0.8"/>
</svg>
